<?xml version="1.0" encoding="utf-8"?>
<!-- Generator: Adobe Illustrator 25.3.1, SVG Export Plug-In . SVG Version: 6.00 Build 0)  -->
<svg version="1.1" id="Laag_1" xmlns="http://www.w3.org/2000/svg" xmlns:xlink="http://www.w3.org/1999/xlink" x="0px" y="0px"
	 viewBox="0 0 30 31" style="enable-background:new 0 0 30 31;" xml:space="preserve">
<style type="text/css">
	@media (prefers-color-scheme: dark) {
		.st0 {
			fill: #FFF;
		}
	}

	.st0{fill:#14161C;stroke:#1D1D1B;stroke-miterlimit:10;}
</style>
<g transform="translate(40.103 5.381)">
	<path id="Path_90" class="st0" d="M-39.6,22.6c0.5-1.7,1.4-3.2,2.7-4.5c1.2-1.4,2.7-2.7,3.8-4.1c0.1-0.1,0.2-0.2,0.2-0.3l0.1-0.1
		v0.1c0,0.1,0,0.1,0,0.2c0.1,0.3,0.1,0.4,0.2,0.7c0.1,0.4,0.3,1,0.4,1.4c0.1,0.4,0.3,0.9,0.4,1.3c0.1,0.3,0.2,0.4,0.3,0.7
		c0,0.1,0.1,0.2,0.2,0.3c0,0.1,0.1,0.3,0.2,0.4c0,0,0,0.1,0,0v-0.1l0.1-0.1l0.2-0.4l0.3-0.6c0.2-0.4,0.4-0.9,0.6-1.2
		c0.4-0.9,0.8-1.7,1.2-2.6c0.8-1.7,1.7-3.3,2.7-4.9c1-1.6,2-3.1,3.2-4.5c0.3-0.4,0.6-0.7,1-1c0.2-0.2,0.4-0.3,0.5-0.4
		c0,0,0.1-0.1,0.2-0.1c0.1,0,0,0,0.1,0v0.1l0.1,0.4l0.7,3l0.4,1.5c0,0.1,0.1,0.3,0.1,0.4c0,0.1,0,0.1,0,0c0,0,0,0,0-0.1
		c0-0.1,0-0.1,0.1-0.2c0.1-0.2,0.2-0.4,0.3-0.6c0.4-0.8,0.7-1.6,1.1-2.3c1.6-3,3.6-5.8,6.2-8.2c0.3-0.3,0.5-0.5,0.9-0.7l0-0.2
		l-0.1-0.1c0,0-4.6,4.6-6.3,7.6C-18.2,4-18.6,4.8-19,5.6c-0.2,0.4-0.4,0.8-0.5,1.2c-0.1,0.2-0.2,0.4-0.3,0.6l-0.1,0.1c0,0,0,0,0,0.1
		c0,0.1,0,0,0,0c0-0.1-0.1-0.3-0.1-0.4l-0.7-3L-21,2.7l-0.1-0.4V2.3c0,0,0,0-0.1,0c-0.1,0-0.1,0.1-0.2,0.1c-0.2,0.1-0.4,0.3-0.5,0.4
		c-0.6,0.6-1.2,1.3-1.8,2c-0.5,0.7-1.2,1.5-1.6,2.3c-1,1.6-2,3.2-2.8,4.9c-0.9,1.7-1.7,3.4-2.4,5.1l-0.3,0.6l-0.4,0.2l-0.1,0.1v0.1
		l0,0V18c-0.2-0.4-0.4-0.9-0.5-1.3c-0.4-0.9-0.6-1.9-0.9-2.8c-0.1-0.3-0.1-0.4-0.2-0.7c0-0.1,0-0.1,0-0.2l0,0c0-0.1,0-0.1,0,0
		c0,0,0,0.1-0.1,0.1c-0.1,0.1-0.2,0.2-0.2,0.3c-0.3,0.4-0.6,0.7-0.9,1.1c-0.7,0.8-1.4,1.4-2,2.1c-1.3,1.2-2.3,2.7-3.1,4.3
		c-0.2,0.4-0.3,0.8-0.4,1.2c0,0.1,0,0.2,0,0.3C-39.5,22.4-39.6,22.5-39.6,22.6z"/>
	<path id="Path_91" class="st0" d="M-17.4-2.8c0.7-0.3,1.3-0.4,2-0.6c0.7-0.2,1.4-0.4,2.1-0.4C-12.9-4-12.6-4-12.2-4
		c0.2,0,0.4,0,0.5,0h0.1l0,0l0,0l0,0v0.1c0,0.1,0,0.2,0.1,0.3c0.2,0.7,0.4,1.5,0.4,2.2c0.2,0.7,0.3,1.5,0.4,2.2c0,0.1,0,0.2,0.1,0.3
		V1V0.6V0.5c-0.1-0.6-0.2-1.4-0.4-2.1c-0.2-0.7-0.3-1.5-0.4-2.2c0-0.2-0.1-0.4-0.1-0.5v-0.1l0,0l0,0h-0.2c-0.1,0-0.2,0-0.3,0
		c-0.4,0-0.7,0-1.1,0.1c-0.7,0.1-1.4,0.3-2.1,0.4c-0.7,0.2-1.4,0.4-2.1,0.6l-0.3,0.1v0.2L-17.4-2.8C-17.4-2.9-17.4-2.8-17.4-2.8z"/>
</g>
</svg>
