<svg id="dollar_bill" data-name="dollar bill" xmlns="http://www.w3.org/2000/svg" width="58.462" height="40.933" viewBox="0 0 58.462 40.933">
  <path id="Path_130" data-name="Path 130" d="M133.978,598.426a11.593,11.593,0,0,1,4.621-7.288,11.843,11.843,0,0,1,8.323-2.336c3.664.433,6.83,2.569,10.391,3.368a10.008,10.008,0,0,0,4.84-.025,8.343,8.343,0,0,0,4.062-2.537c2.29-2.6,2.913-6.084,4.383-9.122.185-.38.385-.756.6-1.12a.344.344,0,0,0-.593-.348c-1.736,2.938-2.271,6.448-4.227,9.269a7.938,7.938,0,0,1-3.8,3,8.93,8.93,0,0,1-4.792.279c-3.6-.73-6.768-2.848-10.418-3.4a12.364,12.364,0,0,0-8.559,1.983,12.56,12.56,0,0,0-5.248,6.99c-.1.362-.181.726-.245,1.094-.073.433.588.618.664.183Z" transform="translate(-133.315 -574.363)" fill="#a9cffc"/>
  <path id="Path_131" data-name="Path 131" d="M136.741,670.309c3.242,4.822,8.444,7.677,12.7,11.465a25.209,25.209,0,0,1,3.32,3.51c.263.348.861,0,.593-.346-3.512-4.618-8.726-7.4-12.884-11.336a21.9,21.9,0,0,1-3.139-3.638c-.245-.366-.84-.023-.593.346Z" transform="translate(-135.911 -644.494)" fill="#a9cffc"/>
  <path id="Path_132" data-name="Path 132" d="M208.939,662.772c.229-2.438,2.977-3.435,5.037-3.826,3.311-.616,6.67.195,9.9.886,3.664.79,7.556,1.458,11.233.3a16.64,16.64,0,0,0,7.9-5.724,22.667,22.667,0,0,0,2.771-4.664,36.2,36.2,0,0,0,1.8-5.459c.131-.474.263-.948.405-1.42a.343.343,0,0,0-.662-.183c-.57,1.882-.971,3.817-1.692,5.651a23.588,23.588,0,0,1-2.6,4.9,16.377,16.377,0,0,1-7.65,6.088c-3.68,1.33-7.611.659-11.33-.137-3.277-.7-6.64-1.491-10.006-.932-2.2.348-4.884,1.319-5.63,3.643a4,4,0,0,0-.169.884c-.039.442.648.44.687,0Z" transform="translate(-191.094 -623.392)" fill="#a9cffc"/>
  <path id="Path_133" data-name="Path 133" d="M152.137,657.563a24.243,24.243,0,0,0,3.082,3.219.353.353,0,0,0,.485,0,.348.348,0,0,0,0-.485,24.239,24.239,0,0,1-3.082-3.219.348.348,0,0,0-.485,0A.355.355,0,0,0,152.137,657.563Z" transform="translate(-147.753 -634.604)" fill="#a9cffc"/>
  <path id="Path_134" data-name="Path 134" d="M149.629,658.4l-.229,1.813a.343.343,0,0,0,.343.344.353.353,0,0,0,.343-.344l.229-1.813a.343.343,0,0,0-.343-.343A.355.355,0,0,0,149.629,658.4Z" transform="translate(-145.717 -635.438)" fill="#a9cffc"/>
  <path id="Path_135" data-name="Path 135" d="M160.78,645.052a3.315,3.315,0,0,0,2.587,3,1.042,1.042,0,0,0,1.111-.394,2.715,2.715,0,0,0,.229-.492,4.583,4.583,0,0,0,.229-.616,1.852,1.852,0,0,0-.071-1.275,2.518,2.518,0,0,0-.8-.861,4.122,4.122,0,0,0-1.181-.6,2.119,2.119,0,0,0-1.388-.1.355.355,0,0,0-.229.424.346.346,0,0,0,.421.229,1.384,1.384,0,0,1,.879.057,3.447,3.447,0,0,1,.833.359,3.116,3.116,0,0,1,.705.566.932.932,0,0,1,.229.792,3.368,3.368,0,0,1-.293.9c-.046.1-.1.256-.195.316a.5.5,0,0,1-.341.018,2.518,2.518,0,0,1-1.333-.772,2.569,2.569,0,0,1-.687-1.552.353.353,0,0,0-.343-.343.346.346,0,0,0-.343.343Z" transform="translate(-154.491 -624.305)" fill="#a9cffc"/>
  <path id="Path_136" data-name="Path 136" d="M174.722,630.872a2.409,2.409,0,0,0,.527,2.226,2.766,2.766,0,0,0,1.935.953.916.916,0,0,0,.959-.572,2.476,2.476,0,0,0,0-1.186,3.954,3.954,0,0,0-1.543-2.441.951.951,0,0,0-.65-.261c-.524.062-.634.831-.6,1.246a.343.343,0,1,0,.687,0,1.177,1.177,0,0,1,.03-.419s.071-.2.076-.2l-.073.027c-.082,0-.1.023-.05.044a.846.846,0,0,0,.121.078,3.038,3.038,0,0,1,.584.527,3.3,3.3,0,0,1,.724,1.42,2.838,2.838,0,0,1,.08.811.237.237,0,0,1-.1.229.687.687,0,0,1-.337.014,2.149,2.149,0,0,1-1.273-.666,1.706,1.706,0,0,1-.428-1.639.343.343,0,0,0-.662-.183Z" transform="translate(-165.178 -613.487)" fill="#a9cffc"/>
  <path id="Path_137" data-name="Path 137" d="M245.061,618.008a18.544,18.544,0,0,0,7.785-1.532,8.014,8.014,0,0,0,4.3-5.012c.327-1.255.472-2.908,1.8-3.531.4-.188.053-.779-.346-.593a3.819,3.819,0,0,0-1.832,2.748,16.878,16.878,0,0,1-.515,1.955,6.057,6.057,0,0,1-.772,1.4,9.488,9.488,0,0,1-5.875,3.421,26.668,26.668,0,0,1-4.554.458c-.442.016-.444.7,0,.687Z" transform="translate(-219.218 -596.304)" fill="#a9cffc"/>
  <path id="Path_138" data-name="Path 138" d="M254.015,659a2.613,2.613,0,0,0-1.541-2.938,2.214,2.214,0,0,0-.836-.16,1.017,1.017,0,0,0-.795.458,2.814,2.814,0,0,0-.481.772,1.309,1.309,0,0,0-.073.916c.156.378.687.344,1.012.261a.8.8,0,0,0,.641-.8.355.355,0,0,0-.343-.344.343.343,0,0,0-.343.344c.021.2-.311.126-.458.158-.114-.011-.073.044.121.163a.707.707,0,0,1,0-.1.847.847,0,0,1,.016-.153,1.227,1.227,0,0,1,.1-.293,2.488,2.488,0,0,1,.458-.625c.121-.128.362-.062.522-.021a1.891,1.891,0,0,1,1.333,2.182.353.353,0,0,0,.24.424.346.346,0,0,0,.421-.24Z" transform="translate(-223.467 -633.772)" fill="#a9cffc"/>
  <path id="Path_139" data-name="Path 139" d="M311.7,612.1a1.7,1.7,0,0,1-.8-1.91.978.978,0,0,1,.675-.65l.046-.011c.1,0,.064-.039-.108-.089l.023.062a.3.3,0,0,1,0,.112.314.314,0,0,1-.169.229.353.353,0,0,0-.24.421.346.346,0,0,0,.424.229,1.023,1.023,0,0,0,.687-1.023.687.687,0,0,0-.364-.611,1,1,0,0,0-.767.114,1.936,1.936,0,0,0-.758,2.539,2.518,2.518,0,0,0,1.017,1.163.344.344,0,1,0,.348-.593Z" transform="translate(-269.667 -597.475)" fill="#a9cffc"/>
  <path id="Path_140" data-name="Path 140" d="M271.273,639.018c2.081-3.08,5.875-4.218,8.875-6.139a13.308,13.308,0,0,0,2.459-1.988c.3-.32-.181-.806-.485-.485-2.61,2.748-6.457,3.721-9.376,6.049a10.034,10.034,0,0,0-2.074,2.216c-.247.366.346.71.593.346Z" transform="translate(-239.175 -614.035)" fill="#a9cffc"/>
  <path id="Path_141" data-name="Path 141" d="M316.919,642.629a15.49,15.49,0,0,0,5.832,3.725c.4.179.751-.414.346-.593-2.061-.916-4.2-1.866-5.692-3.618C317.118,641.8,316.635,642.293,316.919,642.629Z" transform="translate(-274.813 -623.078)" fill="#a9cffc"/>
  <path id="Path_142" data-name="Path 142" d="M282.512,664.512a17.4,17.4,0,0,0,3.986,2.748c.687.346,1.41.625,2.132.9a5.686,5.686,0,0,1,1.994,1.145c.316.309.8-.176.485-.485-1.113-1.088-2.725-1.408-4.087-2.061A16.735,16.735,0,0,1,283,664.027c-.325-.3-.813.188-.485.485Z" transform="translate(-248.269 -639.966)" fill="#a9cffc"/>
  <path id="Path_143" data-name="Path 143" d="M291.408,659.6a23.029,23.029,0,0,0,3.206,2.118,38.244,38.244,0,0,0,3.435,1.884c.4.188.746-.405.346-.593a37.926,37.926,0,0,1-3.35-1.832,23.218,23.218,0,0,1-3.151-2.061c-.334-.286-.822.2-.485.485Z" transform="translate(-255.122 -636.184)" fill="#a9cffc"/>
  <path id="Path_144" data-name="Path 144" d="M297.92,655.989a12.277,12.277,0,0,0,1.832,1.078q.994.563,1.978,1.145a29.1,29.1,0,0,0,3.787,2.136c.41.165.588-.5.183-.662a12.571,12.571,0,0,1-1.761-.955q-.927-.563-1.864-1.113t-1.832-1.056l-.978-.554a5.7,5.7,0,0,1-.861-.508c-.339-.277-.827.206-.485.485Z" transform="translate(-260.141 -633.401)" fill="#a9cffc"/>
  <path id="Path_145" data-name="Path 145" d="M309.36,651.927c1.951,1.271,4.257,1.759,6.347,2.727.4.186.746-.405.346-.593-2.088-.969-4.4-1.458-6.345-2.727C309.337,651.1,308.991,651.686,309.36,651.927Z" transform="translate(-268.929 -630.211)" fill="#a9cffc"/>
  <path id="Path_146" data-name="Path 146" d="M317.853,655.995c-.582,3.5-3.451,5.919-6.365,7.6-.916.531-1.859,1.014-2.8,1.5-.394.2-.046.8.346.593,3.238-1.66,6.684-3.487,8.515-6.789a8.584,8.584,0,0,0,.969-2.722c.071-.433-.591-.618-.664-.183Z" transform="translate(-268.398 -633.654)" fill="#a9cffc"/>
  <path id="Path_147" data-name="Path 147" d="M304.974,700.8a24.219,24.219,0,0,0,4.211,3.7c.364.252.708-.343.346-.593a23.414,23.414,0,0,1-4.069-3.6c-.3-.33-.781.158-.488.485Z" transform="translate(-265.599 -667.93)" fill="#a9cffc"/>
  <path id="Path_148" data-name="Path 148" d="M351.919,659.44a10.033,10.033,0,0,0,4.35,3.144.348.348,0,0,0,.424-.229.353.353,0,0,0-.24-.424,9.349,9.349,0,0,1-4.048-2.977.348.348,0,0,0-.488,0,.355.355,0,0,0,0,.486Z" transform="translate(-301.789 -636.05)" fill="#a9cffc"/>
  <path id="Path_149" data-name="Path 149" d="M294.539,561.235a12.468,12.468,0,0,1-1.788,5.882.344.344,0,0,0,.593.348,13.189,13.189,0,0,0,1.882-6.219c.018-.442-.669-.44-.687,0Z" transform="translate(-256.208 -560.537)" fill="#a9cffc"/>
  <path id="Path_150" data-name="Path 150" d="M303.548,559.911l8.6,5.569c1.342.87,2.722,1.706,4,2.677a21.763,21.763,0,0,1,2.926,2.883,9.995,9.995,0,0,0,3.435,2.732c.408.167.586-.5.183-.664a8.8,8.8,0,0,1-3.022-2.42,24.382,24.382,0,0,0-2.871-2.883c-1.23-.969-2.567-1.788-3.879-2.638l-4.25-2.748-4.765-3.1C303.523,559.075,303.179,559.67,303.548,559.911Z" transform="translate(-264.448 -559.261)" fill="#a9cffc"/>
</svg>
