<svg xmlns="http://www.w3.org/2000/svg" viewBox="0 0 768.83 707.5"><path d="M23.72,758.36A1369.71,1369.71,0,0,1,146.56,614q16.26-16.63,33.1-32.7,8-7.68,16.22-15.23c.71-.66,7.24-7.39,7.78-7.13s1,4.11,1.19,4.71q.78,3,1.59,6,6.24,23.05,14.47,45.51,4.13,11.26,8.75,22.35,2.13,5.12,4.37,10.19,1,2.32,2.08,4.65c.52,1.14,1.54,4.9,2.6,5.67l.26.56c.65-.72,1.29-1.44,1.94-2.15l1.92-2.15,3.79-4.28q4.17-4.74,8.28-9.54,7.93-9.26,15.61-18.71,13.83-17,26.82-34.69,21.68-29.52,40.8-60.81c26-42.68,46.26-88.33,70.45-132,27.72-50,62.1-96.32,101.21-138q5-5.31,10.07-10.52v-15l-38,161.4c-.53,2.26-.08,5.19-.08,7.5q0,2.66,0,5.31c0,.39.25,1.94.05,2.19L586.46,276.22,691,145.35,749.9,71.7c.86-1.08.07-6.11.07-7.5,0-1.77,0-3.54,0-5.31,0-.39-.25-1.94-.05-2.19L645.32,187.57,540.73,318.44l-58.85,73.65v15l38-161.4c.53-2.26.07-5.19.07-7.5,0-1.77,0-3.54,0-5.31a8.59,8.59,0,0,1,0-2.19c-38.75,39.73-73.3,83.87-101.59,131.65-26.17,44.19-46.44,91.54-72.36,135.88a873.6,873.6,0,0,1-91,127.24q-4.11,4.8-8.28,9.54l-3.79,4.28-1.92,2.15c-.49.53-1,1.07-1.45,1.61-.5.88-.84.69-1-.58-1.89-2.26-3-6.45-4.16-9.17q-2.5-5.67-4.89-11.39-9.27-22.33-16.56-45.42-3.43-10.85-6.4-21.83c-.49-1.8-1-3.6-1.43-5.4-.25-.94-.55-4-1.21-4.73l-.14-.58-1.83,1.66L200,547.27l-4.58,4.22q-16.6,15.36-32.69,31.25A1365.45,1365.45,0,0,0,36.63,726.15q-6.53,8.55-12.91,17.21c-.87,1.18-.08,6-.08,7.5q0,2.65,0,5.31c0,.41.26,1.91,0,2.19Z" transform="translate(-23.31 -50.86)"/><path d="M606.89,95.36Q632,90.11,657.06,85t50.42-10q12.6-2.47,25.22-4.9l12.56-2.41,6.27-1.2,1.45-.27a4.63,4.63,0,0,1,1.44-.27c.42.1.17,0,.41.42a7,7,0,0,1,.33.94l.57,1.65,17,48.79q8.57,24.51,17.12,49L792,172.9a10.46,10.46,0,0,1,.06-2.2c0-1.77,0-3.54,0-5.3s0-3.54,0-5.31a8,8,0,0,0-.06-2.19q-8.55-24.53-17.12-49l-17-48.79L755.73,54l-.49-1.41c-.08-.22-.35-1.52-.58-1.65s-1.19.23-1.44.27l-1.69.32L739,53.88q-12.6,2.41-25.19,4.87-25.21,4.92-50.42,10T613.13,79.06l-6.24,1.3c-.31.06-.08,6.89-.07,7.5s.26,7.46.07,7.5Z" transform="translate(-23.31 -50.86)"/></svg>